<?xml version="1.0" encoding="UTF-8"?>
<svg xmlns="http://www.w3.org/2000/svg" xmlns:xlink="http://www.w3.org/1999/xlink" width="98pt" height="39pt" viewBox="0 0 98 39" version="1.1">
<g id="surface1">
<path style="fill-rule:nonzero;fill:rgb(0%,0%,0%);fill-opacity:1;stroke-width:0.3985;stroke-linecap:butt;stroke-linejoin:miter;stroke:rgb(0%,0%,0%);stroke-opacity:1;stroke-miterlimit:10;" d="M 1.417608 -0.00175 C 1.417608 0.783406 0.780908 1.416219 -0.00031847 1.416219 C -0.781545 1.416219 -1.418245 0.783406 -1.418245 -0.00175 C -1.418245 -0.783 -0.781545 -1.415812 -0.00031847 -1.415812 C 0.780908 -1.415812 1.417608 -0.783 1.417608 -0.00175 Z M 1.417608 -0.00175 " transform="matrix(1.00003,0,0,-1,35.867506,3.217)"/>
<path style="fill-rule:nonzero;fill:rgb(0%,0%,0%);fill-opacity:1;stroke-width:0.3985;stroke-linecap:butt;stroke-linejoin:miter;stroke:rgb(0%,0%,0%);stroke-opacity:1;stroke-miterlimit:10;" d="M 32.998692 -0.00175 C 32.998692 0.783406 32.361992 1.416219 31.580765 1.416219 C 30.795633 1.416219 30.162839 0.783406 30.162839 -0.00175 C 30.162839 -0.783 30.795633 -1.415812 31.580765 -1.415812 C 32.361992 -1.415812 32.998692 -0.783 32.998692 -0.00175 Z M 32.998692 -0.00175 " transform="matrix(1.00003,0,0,-1,35.867506,3.217)"/>
<path style="fill-rule:nonzero;fill:rgb(0%,0%,0%);fill-opacity:1;stroke-width:0.3985;stroke-linecap:butt;stroke-linejoin:miter;stroke:rgb(0%,0%,0%);stroke-opacity:1;stroke-miterlimit:10;" d="M -30.93689 -32.353313 C -30.93689 -31.568156 -31.569684 -30.935344 -32.35091 -30.935344 C -33.136043 -30.935344 -33.768837 -31.568156 -33.768837 -32.353313 C -33.768837 -33.134563 -33.136043 -33.771281 -32.35091 -33.771281 C -31.569684 -33.771281 -30.93689 -33.134563 -30.93689 -32.353313 Z M -30.93689 -32.353313 " transform="matrix(1.00003,0,0,-1,35.867506,3.217)"/>
<path style="fill-rule:nonzero;fill:rgb(0%,0%,0%);fill-opacity:1;stroke-width:0.3985;stroke-linecap:butt;stroke-linejoin:miter;stroke:rgb(0%,0%,0%);stroke-opacity:1;stroke-miterlimit:10;" d="M 14.819549 -32.353313 C 14.819549 -31.568156 14.18285 -30.935344 13.401623 -30.935344 C 12.616491 -30.935344 11.983697 -31.568156 11.983697 -32.353313 C 11.983697 -33.134563 12.616491 -33.771281 13.401623 -33.771281 C 14.18285 -33.771281 14.819549 -33.134563 14.819549 -32.353313 Z M 14.819549 -32.353313 " transform="matrix(1.00003,0,0,-1,35.867506,3.217)"/>
<path style="fill-rule:nonzero;fill:rgb(0%,0%,0%);fill-opacity:1;stroke-width:0.3985;stroke-linecap:butt;stroke-linejoin:miter;stroke:rgb(0%,0%,0%);stroke-opacity:1;stroke-miterlimit:10;" d="M 60.572083 -32.353313 C 60.572083 -31.568156 59.935383 -30.935344 59.154157 -30.935344 C 58.37293 -30.935344 57.736231 -31.568156 57.736231 -32.353313 C 57.736231 -33.134563 58.37293 -33.771281 59.154157 -33.771281 C 59.935383 -33.771281 60.572083 -33.134563 60.572083 -32.353313 Z M 60.572083 -32.353313 " transform="matrix(1.00003,0,0,-1,35.867506,3.217)"/>
<path style="fill:none;stroke-width:0.79701;stroke-linecap:butt;stroke-linejoin:miter;stroke:rgb(0%,0%,0%);stroke-opacity:1;stroke-miterlimit:10;" d="M -1.144815 -1.142375 L -31.21032 -31.208781 " transform="matrix(1.00003,0,0,-1,35.867506,3.217)"/>
<path style="fill:none;stroke-width:0.79701;stroke-linecap:butt;stroke-linejoin:miter;stroke:rgb(0%,0%,0%);stroke-opacity:1;stroke-miterlimit:10;" d="M 0.616851 -1.493937 L 12.780548 -30.857219 " transform="matrix(1.00003,0,0,-1,35.867506,3.217)"/>
<path style="fill:none;stroke-width:0.79701;stroke-linecap:butt;stroke-linejoin:miter;stroke:rgb(0%,0%,0%);stroke-opacity:1;stroke-miterlimit:10;" d="M 1.417608 -0.775187 L 57.736231 -31.575969 " transform="matrix(1.00003,0,0,-1,35.867506,3.217)"/>
<path style="fill:none;stroke-width:0.79701;stroke-linecap:butt;stroke-linejoin:miter;stroke:rgb(0%,0%,0%);stroke-opacity:1;stroke-miterlimit:10;" d="M 30.139402 -0.728312 L -30.909547 -31.622844 " transform="matrix(1.00003,0,0,-1,35.867506,3.217)"/>
<path style="fill:none;stroke-width:0.79701;stroke-linecap:butt;stroke-linejoin:miter;stroke:rgb(0%,0%,0%);stroke-opacity:1;stroke-miterlimit:10;" d="M 30.78782 -1.408 L 14.194568 -30.943156 " transform="matrix(1.00003,0,0,-1,35.867506,3.217)"/>
<path style="fill:none;stroke-width:0.79701;stroke-linecap:butt;stroke-linejoin:miter;stroke:rgb(0%,0%,0%);stroke-opacity:1;stroke-miterlimit:10;" d="M 32.627609 -1.232219 L 58.107313 -31.122844 " transform="matrix(1.00003,0,0,-1,35.867506,3.217)"/>
</g>
</svg>
