<?xml version="1.0" encoding="UTF-8"?>
<svg xmlns="http://www.w3.org/2000/svg" xmlns:xlink="http://www.w3.org/1999/xlink" width="282pt" height="85pt" viewBox="0 0 282 85" version="1.1">
<g id="surface1">
<path style="fill-rule:nonzero;fill:rgb(0%,0%,0%);fill-opacity:1;stroke-width:0.3985;stroke-linecap:butt;stroke-linejoin:miter;stroke:rgb(0%,0%,0%);stroke-opacity:1;stroke-miterlimit:10;" d="M 1.417418 -0.0018125 C 1.417418 0.783344 0.784624 1.416156 -0.000508265 1.416156 C -0.781735 1.416156 -1.418434 0.783344 -1.418434 -0.0018125 C -1.418434 -0.783062 -0.781735 -1.415875 -0.000508265 -1.415875 C 0.784624 -1.415875 1.417418 -0.783062 1.417418 -0.0018125 Z M 1.417418 -0.0018125 " transform="matrix(1.00003,0,0,-1,47.402852,37.631)"/>
<path style="fill-rule:nonzero;fill:rgb(0%,0%,0%);fill-opacity:1;stroke-width:0.3985;stroke-linecap:butt;stroke-linejoin:miter;stroke:rgb(0%,0%,0%);stroke-opacity:1;stroke-miterlimit:10;" d="M 23.748779 22.330219 C 23.748779 23.111469 23.11208 23.748188 22.330853 23.748188 C 21.549626 23.748188 20.912927 23.111469 20.912927 22.330219 C 20.912927 21.548969 21.549626 20.91225 22.330853 20.91225 C 23.11208 20.91225 23.748779 21.548969 23.748779 22.330219 Z M 23.748779 22.330219 " transform="matrix(1.00003,0,0,-1,47.402852,37.631)"/>
<path style="fill-rule:nonzero;fill:rgb(0%,0%,0%);fill-opacity:1;stroke-width:0.3985;stroke-linecap:butt;stroke-linejoin:miter;stroke:rgb(0%,0%,0%);stroke-opacity:1;stroke-miterlimit:10;" d="M 23.748779 -22.329937 C 23.748779 -21.548687 23.11208 -20.911969 22.330853 -20.911969 C 21.549626 -20.911969 20.912927 -21.548687 20.912927 -22.329937 C 20.912927 -23.115094 21.549626 -23.747906 22.330853 -23.747906 C 23.11208 -23.747906 23.748779 -23.115094 23.748779 -22.329937 Z M 23.748779 -22.329937 " transform="matrix(1.00003,0,0,-1,47.402852,37.631)"/>
<path style="fill-rule:nonzero;fill:rgb(0%,0%,0%);fill-opacity:1;stroke-width:0.3985;stroke-linecap:butt;stroke-linejoin:miter;stroke:rgb(0%,0%,0%);stroke-opacity:1;stroke-miterlimit:10;" d="M 1.417418 -31.579937 C 1.417418 -30.798687 0.784624 -30.161969 -0.000508265 -30.161969 C -0.781735 -30.161969 -1.418434 -30.798687 -1.418434 -31.579937 C -1.418434 -32.361187 -0.781735 -32.997906 -0.000508265 -32.997906 C 0.784624 -32.997906 1.417418 -32.361187 1.417418 -31.579937 Z M 1.417418 -31.579937 " transform="matrix(1.00003,0,0,-1,47.402852,37.631)"/>
<path style="fill-rule:nonzero;fill:rgb(0%,0%,0%);fill-opacity:1;stroke-width:0.3985;stroke-linecap:butt;stroke-linejoin:miter;stroke:rgb(0%,0%,0%);stroke-opacity:1;stroke-miterlimit:10;" d="M -30.163666 -0.0018125 C -30.163666 0.783344 -30.796459 1.416156 -31.581592 1.416156 C -32.362819 1.416156 -32.995612 0.783344 -32.995612 -0.0018125 C -32.995612 -0.783062 -32.362819 -1.415875 -31.581592 -1.415875 C -30.796459 -1.415875 -30.163666 -0.783062 -30.163666 -0.0018125 Z M -30.163666 -0.0018125 " transform="matrix(1.00003,0,0,-1,47.402852,37.631)"/>
<path style="fill-rule:nonzero;fill:rgb(0%,0%,0%);fill-opacity:1;stroke-width:0.3985;stroke-linecap:butt;stroke-linejoin:miter;stroke:rgb(0%,0%,0%);stroke-opacity:1;stroke-miterlimit:10;" d="M 36.057004 34.638813 C 36.057004 35.420063 35.420304 36.056781 34.639078 36.056781 C 33.857851 36.056781 33.221151 35.420063 33.221151 34.638813 C 33.221151 33.857563 33.857851 33.220844 34.639078 33.220844 C 35.420304 33.220844 36.057004 33.857563 36.057004 34.638813 Z M 36.057004 34.638813 " transform="matrix(1.00003,0,0,-1,47.402852,37.631)"/>
<path style="fill-rule:nonzero;fill:rgb(0%,0%,0%);fill-opacity:1;stroke-width:0.3985;stroke-linecap:butt;stroke-linejoin:miter;stroke:rgb(0%,0%,0%);stroke-opacity:1;stroke-miterlimit:10;" d="M 36.057004 10.021625 C 36.057004 10.806781 35.420304 11.439594 34.639078 11.439594 C 33.857851 11.439594 33.221151 10.806781 33.221151 10.021625 C 33.221151 9.240375 33.857851 8.603656 34.639078 8.603656 C 35.420304 8.603656 36.057004 9.240375 36.057004 10.021625 Z M 36.057004 10.021625 " transform="matrix(1.00003,0,0,-1,47.402852,37.631)"/>
<path style="fill-rule:nonzero;fill:rgb(0%,0%,0%);fill-opacity:1;stroke-width:0.3985;stroke-linecap:butt;stroke-linejoin:miter;stroke:rgb(0%,0%,0%);stroke-opacity:1;stroke-miterlimit:10;" d="M 36.057004 -10.021344 C 36.057004 -9.240094 35.420304 -8.603375 34.639078 -8.603375 C 33.857851 -8.603375 33.221151 -9.240094 33.221151 -10.021344 C 33.221151 -10.8065 33.857851 -11.439312 34.639078 -11.439312 C 35.420304 -11.439312 36.057004 -10.8065 36.057004 -10.021344 Z M 36.057004 -10.021344 " transform="matrix(1.00003,0,0,-1,47.402852,37.631)"/>
<path style="fill-rule:nonzero;fill:rgb(0%,0%,0%);fill-opacity:1;stroke-width:0.3985;stroke-linecap:butt;stroke-linejoin:miter;stroke:rgb(0%,0%,0%);stroke-opacity:1;stroke-miterlimit:10;" d="M 36.057004 -34.638531 C 36.057004 -33.857281 35.420304 -33.220562 34.639078 -33.220562 C 33.857851 -33.220562 33.221151 -33.857281 33.221151 -34.638531 C 33.221151 -35.423687 33.857851 -36.0565 34.639078 -36.0565 C 35.420304 -36.0565 36.057004 -35.423687 36.057004 -34.638531 Z M 36.057004 -34.638531 " transform="matrix(1.00003,0,0,-1,47.402852,37.631)"/>
<path style="fill-rule:nonzero;fill:rgb(0%,0%,0%);fill-opacity:1;stroke-width:0.3985;stroke-linecap:butt;stroke-linejoin:miter;stroke:rgb(0%,0%,0%);stroke-opacity:1;stroke-miterlimit:10;" d="M 13.725642 -43.888531 C 13.725642 -43.107281 13.092849 -42.470562 12.307716 -42.470562 C 11.52649 -42.470562 10.88979 -43.107281 10.88979 -43.888531 C 10.88979 -44.669781 11.52649 -45.3065 12.307716 -45.3065 C 13.092849 -45.3065 13.725642 -44.669781 13.725642 -43.888531 Z M 13.725642 -43.888531 " transform="matrix(1.00003,0,0,-1,47.402852,37.631)"/>
<path style="fill-rule:nonzero;fill:rgb(0%,0%,0%);fill-opacity:1;stroke-width:0.3985;stroke-linecap:butt;stroke-linejoin:miter;stroke:rgb(0%,0%,0%);stroke-opacity:1;stroke-miterlimit:10;" d="M -10.890807 -43.888531 C -10.890807 -43.107281 -11.527506 -42.470562 -12.308733 -42.470562 C -13.089959 -42.470562 -13.726659 -43.107281 -13.726659 -43.888531 C -13.726659 -44.669781 -13.089959 -45.3065 -12.308733 -45.3065 C -11.527506 -45.3065 -10.890807 -44.669781 -10.890807 -43.888531 Z M -10.890807 -43.888531 " transform="matrix(1.00003,0,0,-1,47.402852,37.631)"/>
<path style="fill-rule:nonzero;fill:rgb(0%,0%,0%);fill-opacity:1;stroke-width:0.3985;stroke-linecap:butt;stroke-linejoin:miter;stroke:rgb(0%,0%,0%);stroke-opacity:1;stroke-miterlimit:10;" d="M -42.47189 12.306781 C -42.47189 13.091938 -43.104684 13.72475 -43.889817 13.72475 C -44.671043 13.72475 -45.307743 13.091938 -45.307743 12.306781 C -45.307743 11.525531 -44.671043 10.892719 -43.889817 10.892719 C -43.104684 10.892719 -42.47189 11.525531 -42.47189 12.306781 Z M -42.47189 12.306781 " transform="matrix(1.00003,0,0,-1,47.402852,37.631)"/>
<path style="fill-rule:nonzero;fill:rgb(0%,0%,0%);fill-opacity:1;stroke-width:0.3985;stroke-linecap:butt;stroke-linejoin:miter;stroke:rgb(0%,0%,0%);stroke-opacity:1;stroke-miterlimit:10;" d="M -42.47189 -12.3065 C -42.47189 -11.52525 -43.104684 -10.892437 -43.889817 -10.892437 C -44.671043 -10.892437 -45.307743 -11.52525 -45.307743 -12.3065 C -45.307743 -13.091656 -44.671043 -13.724469 -43.889817 -13.724469 C -43.104684 -13.724469 -42.47189 -13.091656 -42.47189 -12.3065 Z M -42.47189 -12.3065 " transform="matrix(1.00003,0,0,-1,47.402852,37.631)"/>
<path style="fill:none;stroke-width:0.79701;stroke-linecap:butt;stroke-linejoin:miter;stroke:rgb(0%,0%,0%);stroke-opacity:1;stroke-miterlimit:10;" d="M 1.143989 1.142719 L 21.186356 21.185688 " transform="matrix(1.00003,0,0,-1,47.402852,37.631)"/>
<path style="fill:none;stroke-width:0.79701;stroke-linecap:butt;stroke-linejoin:miter;stroke:rgb(0%,0%,0%);stroke-opacity:1;stroke-miterlimit:10;" d="M 1.143989 -1.142437 L 21.186356 -21.189312 " transform="matrix(1.00003,0,0,-1,47.402852,37.631)"/>
<path style="fill:none;stroke-width:0.79701;stroke-linecap:butt;stroke-linejoin:miter;stroke:rgb(0%,0%,0%);stroke-opacity:1;stroke-miterlimit:10;" d="M -0.000508265 -1.615094 L -0.000508265 -29.96275 " transform="matrix(1.00003,0,0,-1,47.402852,37.631)"/>
<path style="fill:none;stroke-width:0.79701;stroke-linecap:butt;stroke-linejoin:miter;stroke:rgb(0%,0%,0%);stroke-opacity:1;stroke-miterlimit:10;" d="M -1.617647 -0.0018125 L -29.964453 -0.0018125 " transform="matrix(1.00003,0,0,-1,47.402852,37.631)"/>
<path style="fill:none;stroke-width:0.79701;stroke-linecap:butt;stroke-linejoin:miter;stroke:rgb(0%,0%,0%);stroke-opacity:1;stroke-miterlimit:10;" d="M 23.47535 23.47475 L 33.494581 33.494281 " transform="matrix(1.00003,0,0,-1,47.402852,37.631)"/>
<path style="fill:none;stroke-width:0.79701;stroke-linecap:butt;stroke-linejoin:miter;stroke:rgb(0%,0%,0%);stroke-opacity:1;stroke-miterlimit:10;" d="M 23.47535 21.185688 L 33.494581 11.166156 " transform="matrix(1.00003,0,0,-1,47.402852,37.631)"/>
<path style="fill:none;stroke-width:0.79701;stroke-linecap:butt;stroke-linejoin:miter;stroke:rgb(0%,0%,0%);stroke-opacity:1;stroke-miterlimit:10;" d="M 23.47535 -21.189312 L 33.494581 -11.165875 " transform="matrix(1.00003,0,0,-1,47.402852,37.631)"/>
<path style="fill:none;stroke-width:0.79701;stroke-linecap:butt;stroke-linejoin:miter;stroke:rgb(0%,0%,0%);stroke-opacity:1;stroke-miterlimit:10;" d="M 23.47535 -23.474469 L 33.494581 -33.494 " transform="matrix(1.00003,0,0,-1,47.402852,37.631)"/>
<path style="fill:none;stroke-width:0.79701;stroke-linecap:butt;stroke-linejoin:miter;stroke:rgb(0%,0%,0%);stroke-opacity:1;stroke-miterlimit:10;" d="M 1.143989 -32.724469 L 11.167125 -42.744 " transform="matrix(1.00003,0,0,-1,47.402852,37.631)"/>
<path style="fill:none;stroke-width:0.79701;stroke-linecap:butt;stroke-linejoin:miter;stroke:rgb(0%,0%,0%);stroke-opacity:1;stroke-miterlimit:10;" d="M -1.145005 -32.724469 L -11.164236 -42.744 " transform="matrix(1.00003,0,0,-1,47.402852,37.631)"/>
<path style="fill:none;stroke-width:0.79701;stroke-linecap:butt;stroke-linejoin:miter;stroke:rgb(0%,0%,0%);stroke-opacity:1;stroke-miterlimit:10;" d="M -32.722183 1.142719 L -42.74532 11.166156 " transform="matrix(1.00003,0,0,-1,47.402852,37.631)"/>
<path style="fill:none;stroke-width:0.79701;stroke-linecap:butt;stroke-linejoin:miter;stroke:rgb(0%,0%,0%);stroke-opacity:1;stroke-miterlimit:10;" d="M -32.722183 -1.142437 L -42.74532 -11.165875 " transform="matrix(1.00003,0,0,-1,47.402852,37.631)"/>
<path style="fill:none;stroke-width:0.79701;stroke-linecap:butt;stroke-linejoin:miter;stroke:rgb(0%,0%,0%);stroke-opacity:1;stroke-miterlimit:10;" d="M -1.145005 -30.435406 L -30.437095 -1.142437 " transform="matrix(1.00003,0,0,-1,47.402852,37.631)"/>
<path style="fill-rule:nonzero;fill:rgb(0%,0%,0%);fill-opacity:1;stroke-width:0.3985;stroke-linecap:butt;stroke-linejoin:miter;stroke:rgb(0%,0%,0%);stroke-opacity:1;stroke-miterlimit:10;" d="M 75.516757 -0.0018125 C 75.516757 0.783344 74.883964 1.416156 74.098831 1.416156 C 73.317605 1.416156 72.684811 0.783344 72.684811 -0.0018125 C 72.684811 -0.783062 73.317605 -1.415875 74.098831 -1.415875 C 74.883964 -1.415875 75.516757 -0.783062 75.516757 -0.0018125 Z M 75.516757 -0.0018125 " transform="matrix(1.00003,0,0,-1,47.402852,37.631)"/>
<path style="fill-rule:nonzero;fill:rgb(0%,0%,0%);fill-opacity:1;stroke-width:0.3985;stroke-linecap:butt;stroke-linejoin:miter;stroke:rgb(0%,0%,0%);stroke-opacity:1;stroke-miterlimit:10;" d="M 107.097841 -0.0018125 C 107.097841 0.783344 106.465048 1.416156 105.679915 1.416156 C 104.898689 1.416156 104.261989 0.783344 104.261989 -0.0018125 C 104.261989 -0.783062 104.898689 -1.415875 105.679915 -1.415875 C 106.465048 -1.415875 107.097841 -0.783062 107.097841 -0.0018125 Z M 107.097841 -0.0018125 " transform="matrix(1.00003,0,0,-1,47.402852,37.631)"/>
<path style="fill-rule:nonzero;fill:rgb(0%,0%,0%);fill-opacity:1;stroke-width:0.3985;stroke-linecap:butt;stroke-linejoin:miter;stroke:rgb(0%,0%,0%);stroke-opacity:1;stroke-miterlimit:10;" d="M 138.678925 -0.0018125 C 138.678925 0.783344 138.042225 1.416156 137.260999 1.416156 C 136.479772 1.416156 135.843073 0.783344 135.843073 -0.0018125 C 135.843073 -0.783062 136.479772 -1.415875 137.260999 -1.415875 C 138.042225 -1.415875 138.678925 -0.783062 138.678925 -0.0018125 Z M 138.678925 -0.0018125 " transform="matrix(1.00003,0,0,-1,47.402852,37.631)"/>
<path style="fill-rule:nonzero;fill:rgb(0%,0%,0%);fill-opacity:1;stroke-width:0.3985;stroke-linecap:butt;stroke-linejoin:miter;stroke:rgb(0%,0%,0%);stroke-opacity:1;stroke-miterlimit:10;" d="M 170.260009 -0.0018125 C 170.260009 0.783344 169.623309 1.416156 168.842083 1.416156 C 168.05695 1.416156 167.424156 0.783344 167.424156 -0.0018125 C 167.424156 -0.783062 168.05695 -1.415875 168.842083 -1.415875 C 169.623309 -1.415875 170.260009 -0.783062 170.260009 -0.0018125 Z M 170.260009 -0.0018125 " transform="matrix(1.00003,0,0,-1,47.402852,37.631)"/>
<path style="fill:none;stroke-width:0.79701;stroke-linecap:butt;stroke-linejoin:miter;stroke:rgb(0%,0%,0%);stroke-opacity:1;stroke-miterlimit:10;" d="M 75.71597 -0.0018125 L 104.062776 -0.0018125 " transform="matrix(1.00003,0,0,-1,47.402852,37.631)"/>
<path style="fill:none;stroke-width:0.79701;stroke-linecap:butt;stroke-linejoin:miter;stroke:rgb(0%,0%,0%);stroke-opacity:1;stroke-miterlimit:10;" d="M 107.082217 -0.8065 C 116.800675 -6.419781 126.140239 -6.419781 135.858697 -0.8065 " transform="matrix(1.00003,0,0,-1,47.402852,37.631)"/>
<path style="fill:none;stroke-width:0.79701;stroke-linecap:butt;stroke-linejoin:miter;stroke:rgb(0%,0%,0%);stroke-opacity:1;stroke-miterlimit:10;" d="M 107.082217 0.806781 C 116.800675 6.420063 126.140239 6.420063 135.858697 0.806781 " transform="matrix(1.00003,0,0,-1,47.402852,37.631)"/>
<path style="fill:none;stroke-width:0.79701;stroke-linecap:butt;stroke-linejoin:miter;stroke:rgb(0%,0%,0%);stroke-opacity:1;stroke-miterlimit:10;" d="M 138.878138 -0.0018125 L 167.224944 -0.0018125 " transform="matrix(1.00003,0,0,-1,47.402852,37.631)"/>
<path style="fill-rule:nonzero;fill:rgb(0%,0%,0%);fill-opacity:1;stroke-width:0.3985;stroke-linecap:butt;stroke-linejoin:miter;stroke:rgb(0%,0%,0%);stroke-opacity:1;stroke-miterlimit:10;" d="M 230.183992 -0.0018125 C 230.183992 0.783344 229.551199 1.416156 228.766066 1.416156 C 227.98484 1.416156 227.352046 0.783344 227.352046 -0.0018125 C 227.352046 -0.783062 227.98484 -1.415875 228.766066 -1.415875 C 229.551199 -1.415875 230.183992 -0.783062 230.183992 -0.0018125 Z M 230.183992 -0.0018125 " transform="matrix(1.00003,0,0,-1,47.402852,37.631)"/>
<path style="fill:none;stroke-width:0.79701;stroke-linecap:butt;stroke-linejoin:miter;stroke:rgb(0%,0%,0%);stroke-opacity:1;stroke-miterlimit:10;" d="M 228.34811 1.560688 C 217.344534 42.634906 240.191505 42.634906 229.187929 1.560688 " transform="matrix(1.00003,0,0,-1,47.402852,37.631)"/>
</g>
</svg>
