<?xml version="1.0" encoding="UTF-8"?>
<svg xmlns="http://www.w3.org/2000/svg" xmlns:xlink="http://www.w3.org/1999/xlink" width="131pt" height="115pt" viewBox="0 0 131 115" version="1.1">
<g id="surface1">
<path style="fill-rule:nonzero;fill:rgb(0%,0%,0%);fill-opacity:1;stroke-width:0.3985;stroke-linecap:butt;stroke-linejoin:miter;stroke:rgb(0%,0%,0%);stroke-opacity:1;stroke-miterlimit:10;" d="M 1.415469 0.00151727 C 1.415469 0.782728 0.782656 1.415509 0.00140625 1.415509 C -0.78375 1.415509 -1.416562 0.782728 -1.416562 0.00151727 C -1.416562 -0.7836 -0.78375 -1.416381 0.00140625 -1.416381 C 0.782656 -1.416381 1.415469 -0.7836 1.415469 0.00151727 Z M 1.415469 0.00151727 " transform="matrix(1,0,0,-1.00005,67.065,3.216361)"/>
<path style="fill-rule:nonzero;fill:rgb(0%,0%,0%);fill-opacity:1;stroke-width:0.3985;stroke-linecap:butt;stroke-linejoin:miter;stroke:rgb(0%,0%,0%);stroke-opacity:1;stroke-miterlimit:10;" d="M -32.049375 -39.137151 C -32.049375 -38.35594 -32.686094 -37.719253 -33.467344 -37.719253 C -34.2525 -37.719253 -34.885312 -38.35594 -34.885312 -39.137151 C -34.885312 -39.918362 -34.2525 -40.555049 -33.467344 -40.555049 C -32.686094 -40.555049 -32.049375 -39.918362 -32.049375 -39.137151 Z M -32.049375 -39.137151 " transform="matrix(1,0,0,-1.00005,67.065,3.216361)"/>
<path style="fill-rule:nonzero;fill:rgb(0%,0%,0%);fill-opacity:1;stroke-width:0.3985;stroke-linecap:butt;stroke-linejoin:miter;stroke:rgb(0%,0%,0%);stroke-opacity:1;stroke-miterlimit:10;" d="M 34.884219 -39.137151 C 34.884219 -38.35594 34.251406 -37.719253 33.46625 -37.719253 C 32.685 -37.719253 32.052188 -38.35594 32.052188 -39.137151 C 32.052188 -39.918362 32.685 -40.555049 33.46625 -40.555049 C 34.251406 -40.555049 34.884219 -39.918362 34.884219 -39.137151 Z M 34.884219 -39.137151 " transform="matrix(1,0,0,-1.00005,67.065,3.216361)"/>
<path style="fill-rule:nonzero;fill:rgb(0%,0%,0%);fill-opacity:1;stroke-width:0.3985;stroke-linecap:butt;stroke-linejoin:miter;stroke:rgb(0%,0%,0%);stroke-opacity:1;stroke-miterlimit:10;" d="M -51.34625 -78.275819 C -51.34625 -77.490702 -51.979062 -76.857921 -52.764219 -76.857921 C -53.545469 -76.857921 -54.178281 -77.490702 -54.178281 -78.275819 C -54.178281 -79.05703 -53.545469 -79.693717 -52.764219 -79.693717 C -51.979062 -79.693717 -51.34625 -79.05703 -51.34625 -78.275819 Z M -51.34625 -78.275819 " transform="matrix(1,0,0,-1.00005,67.065,3.216361)"/>
<path style="fill-rule:nonzero;fill:rgb(0%,0%,0%);fill-opacity:1;stroke-width:0.3985;stroke-linecap:butt;stroke-linejoin:miter;stroke:rgb(0%,0%,0%);stroke-opacity:1;stroke-miterlimit:10;" d="M -15.592344 -78.275819 C -15.592344 -77.490702 -16.225156 -76.857921 -17.006406 -76.857921 C -17.791562 -76.857921 -18.424375 -77.490702 -18.424375 -78.275819 C -18.424375 -79.05703 -17.791562 -79.693717 -17.006406 -79.693717 C -16.225156 -79.693717 -15.592344 -79.05703 -15.592344 -78.275819 Z M -15.592344 -78.275819 " transform="matrix(1,0,0,-1.00005,67.065,3.216361)"/>
<path style="fill-rule:nonzero;fill:rgb(0%,0%,0%);fill-opacity:1;stroke-width:0.3985;stroke-linecap:butt;stroke-linejoin:miter;stroke:rgb(0%,0%,0%);stroke-opacity:1;stroke-miterlimit:10;" d="M 18.427188 -78.275819 C 18.427188 -77.490702 17.790469 -76.857921 17.009219 -76.857921 C 16.224063 -76.857921 15.59125 -77.490702 15.59125 -78.275819 C 15.59125 -79.05703 16.224063 -79.693717 17.009219 -79.693717 C 17.790469 -79.693717 18.427188 -79.05703 18.427188 -78.275819 Z M 18.427188 -78.275819 " transform="matrix(1,0,0,-1.00005,67.065,3.216361)"/>
<path style="fill-rule:nonzero;fill:rgb(0%,0%,0%);fill-opacity:1;stroke-width:0.3985;stroke-linecap:butt;stroke-linejoin:miter;stroke:rgb(0%,0%,0%);stroke-opacity:1;stroke-miterlimit:10;" d="M 51.345156 -78.275819 C 51.345156 -77.490702 50.712344 -76.857921 49.927188 -76.857921 C 49.145938 -76.857921 48.509219 -77.490702 48.509219 -78.275819 C 48.509219 -79.05703 49.145938 -79.693717 49.927188 -79.693717 C 50.712344 -79.693717 51.345156 -79.05703 51.345156 -78.275819 Z M 51.345156 -78.275819 " transform="matrix(1,0,0,-1.00005,67.065,3.216361)"/>
<path style="fill-rule:nonzero;fill:rgb(0%,0%,0%);fill-opacity:1;stroke-width:0.3985;stroke-linecap:butt;stroke-linejoin:miter;stroke:rgb(0%,0%,0%);stroke-opacity:1;stroke-miterlimit:10;" d="M -62.135312 -108.9071 C -62.135312 -108.125889 -62.772031 -107.489202 -63.553281 -107.489202 C -64.334531 -107.489202 -64.97125 -108.125889 -64.97125 -108.9071 C -64.97125 -109.692217 -64.334531 -110.324998 -63.553281 -110.324998 C -62.772031 -110.324998 -62.135312 -109.692217 -62.135312 -108.9071 Z M -62.135312 -108.9071 " transform="matrix(1,0,0,-1.00005,67.065,3.216361)"/>
<path style="fill-rule:nonzero;fill:rgb(0%,0%,0%);fill-opacity:1;stroke-width:0.3985;stroke-linecap:butt;stroke-linejoin:miter;stroke:rgb(0%,0%,0%);stroke-opacity:1;stroke-miterlimit:10;" d="M -40.553281 -108.9071 C -40.553281 -108.125889 -41.19 -107.489202 -41.97125 -107.489202 C -42.756406 -107.489202 -43.389219 -108.125889 -43.389219 -108.9071 C -43.389219 -109.692217 -42.756406 -110.324998 -41.97125 -110.324998 C -41.19 -110.324998 -40.553281 -109.692217 -40.553281 -108.9071 Z M -40.553281 -108.9071 " transform="matrix(1,0,0,-1.00005,67.065,3.216361)"/>
<path style="fill-rule:nonzero;fill:rgb(0%,0%,0%);fill-opacity:1;stroke-width:0.3985;stroke-linecap:butt;stroke-linejoin:miter;stroke:rgb(0%,0%,0%);stroke-opacity:1;stroke-miterlimit:10;" d="M -26.381406 -108.9071 C -26.381406 -108.125889 -27.014219 -107.489202 -27.799375 -107.489202 C -28.580625 -107.489202 -29.217344 -108.125889 -29.217344 -108.9071 C -29.217344 -109.692217 -28.580625 -110.324998 -27.799375 -110.324998 C -27.014219 -110.324998 -26.381406 -109.692217 -26.381406 -108.9071 Z M -26.381406 -108.9071 " transform="matrix(1,0,0,-1.00005,67.065,3.216361)"/>
<path style="fill-rule:nonzero;fill:rgb(0%,0%,0%);fill-opacity:1;stroke-width:0.3985;stroke-linecap:butt;stroke-linejoin:miter;stroke:rgb(0%,0%,0%);stroke-opacity:1;stroke-miterlimit:10;" d="M -4.799375 -108.9071 C -4.799375 -108.125889 -5.436094 -107.489202 -6.217344 -107.489202 C -7.0025 -107.489202 -7.635312 -108.125889 -7.635312 -108.9071 C -7.635312 -109.692217 -7.0025 -110.324998 -6.217344 -110.324998 C -5.436094 -110.324998 -4.799375 -109.692217 -4.799375 -108.9071 Z M -4.799375 -108.9071 " transform="matrix(1,0,0,-1.00005,67.065,3.216361)"/>
<path style="fill-rule:nonzero;fill:rgb(0%,0%,0%);fill-opacity:1;stroke-width:0.3985;stroke-linecap:butt;stroke-linejoin:miter;stroke:rgb(0%,0%,0%);stroke-opacity:1;stroke-miterlimit:10;" d="M 7.634219 -108.9071 C 7.634219 -108.125889 7.001406 -107.489202 6.21625 -107.489202 C 5.435 -107.489202 4.802188 -108.125889 4.802188 -108.9071 C 4.802188 -109.692217 5.435 -110.324998 6.21625 -110.324998 C 7.001406 -110.324998 7.634219 -109.692217 7.634219 -108.9071 Z M 7.634219 -108.9071 " transform="matrix(1,0,0,-1.00005,67.065,3.216361)"/>
<path style="fill-rule:nonzero;fill:rgb(0%,0%,0%);fill-opacity:1;stroke-width:0.3985;stroke-linecap:butt;stroke-linejoin:miter;stroke:rgb(0%,0%,0%);stroke-opacity:1;stroke-miterlimit:10;" d="M 29.21625 -108.9071 C 29.21625 -108.125889 28.583438 -107.489202 27.798281 -107.489202 C 27.017031 -107.489202 26.380313 -108.125889 26.380313 -108.9071 C 26.380313 -109.692217 27.017031 -110.324998 27.798281 -110.324998 C 28.583438 -110.324998 29.21625 -109.692217 29.21625 -108.9071 Z M 29.21625 -108.9071 " transform="matrix(1,0,0,-1.00005,67.065,3.216361)"/>
<path style="fill-rule:nonzero;fill:rgb(0%,0%,0%);fill-opacity:1;stroke-width:0.3985;stroke-linecap:butt;stroke-linejoin:miter;stroke:rgb(0%,0%,0%);stroke-opacity:1;stroke-miterlimit:10;" d="M 40.556094 -108.9071 C 40.556094 -108.125889 39.919375 -107.489202 39.138125 -107.489202 C 38.352969 -107.489202 37.720156 -108.125889 37.720156 -108.9071 C 37.720156 -109.692217 38.352969 -110.324998 39.138125 -110.324998 C 39.919375 -110.324998 40.556094 -109.692217 40.556094 -108.9071 Z M 40.556094 -108.9071 " transform="matrix(1,0,0,-1.00005,67.065,3.216361)"/>
<path style="fill-rule:nonzero;fill:rgb(0%,0%,0%);fill-opacity:1;stroke-width:0.3985;stroke-linecap:butt;stroke-linejoin:miter;stroke:rgb(0%,0%,0%);stroke-opacity:1;stroke-miterlimit:10;" d="M 62.134219 -108.9071 C 62.134219 -108.125889 61.501406 -107.489202 60.71625 -107.489202 C 59.935 -107.489202 59.302188 -108.125889 59.302188 -108.9071 C 59.302188 -109.692217 59.935 -110.324998 60.71625 -110.324998 C 61.501406 -110.324998 62.134219 -109.692217 62.134219 -108.9071 Z M 62.134219 -108.9071 " transform="matrix(1,0,0,-1.00005,67.065,3.216361)"/>
<path style="fill:none;stroke-width:0.79701;stroke-linecap:butt;stroke-linejoin:miter;stroke:rgb(0%,0%,0%);stroke-opacity:1;stroke-miterlimit:10;" d="M -1.049375 -1.22889 L -32.416562 -37.906744 " transform="matrix(1,0,0,-1.00005,67.065,3.216361)"/>
<path style="fill:none;stroke-width:0.79701;stroke-linecap:butt;stroke-linejoin:miter;stroke:rgb(0%,0%,0%);stroke-opacity:1;stroke-miterlimit:10;" d="M 1.052188 -1.22889 L 32.415469 -37.906744 " transform="matrix(1,0,0,-1.00005,67.065,3.216361)"/>
<path style="fill:none;stroke-width:0.79701;stroke-linecap:butt;stroke-linejoin:miter;stroke:rgb(0%,0%,0%);stroke-opacity:1;stroke-miterlimit:10;" d="M -34.182187 -40.586297 L -52.049375 -76.822767 " transform="matrix(1,0,0,-1.00005,67.065,3.216361)"/>
<path style="fill:none;stroke-width:0.79701;stroke-linecap:butt;stroke-linejoin:miter;stroke:rgb(0%,0%,0%);stroke-opacity:1;stroke-miterlimit:10;" d="M -32.842344 -40.629264 L -17.635312 -76.783706 " transform="matrix(1,0,0,-1.00005,67.065,3.216361)"/>
<path style="fill:none;stroke-width:0.79701;stroke-linecap:butt;stroke-linejoin:miter;stroke:rgb(0%,0%,0%);stroke-opacity:1;stroke-miterlimit:10;" d="M 32.84125 -40.629264 L 17.634219 -76.783706 " transform="matrix(1,0,0,-1.00005,67.065,3.216361)"/>
<path style="fill:none;stroke-width:0.79701;stroke-linecap:butt;stroke-linejoin:miter;stroke:rgb(0%,0%,0%);stroke-opacity:1;stroke-miterlimit:10;" d="M 34.095156 -40.629264 L 49.302188 -76.783706 " transform="matrix(1,0,0,-1.00005,67.065,3.216361)"/>
<path style="fill:none;stroke-width:0.79701;stroke-linecap:butt;stroke-linejoin:miter;stroke:rgb(0%,0%,0%);stroke-opacity:1;stroke-miterlimit:10;" d="M -53.299375 -79.79918 L -63.014219 -107.383738 " transform="matrix(1,0,0,-1.00005,67.065,3.216361)"/>
<path style="fill:none;stroke-width:0.79701;stroke-linecap:butt;stroke-linejoin:miter;stroke:rgb(0%,0%,0%);stroke-opacity:1;stroke-miterlimit:10;" d="M -52.225156 -79.79918 L -42.510312 -107.383738 " transform="matrix(1,0,0,-1.00005,67.065,3.216361)"/>
<path style="fill:none;stroke-width:0.79701;stroke-linecap:butt;stroke-linejoin:miter;stroke:rgb(0%,0%,0%);stroke-opacity:1;stroke-miterlimit:10;" d="M -17.545469 -79.79918 L -27.260312 -107.383738 " transform="matrix(1,0,0,-1.00005,67.065,3.216361)"/>
<path style="fill:none;stroke-width:0.79701;stroke-linecap:butt;stroke-linejoin:miter;stroke:rgb(0%,0%,0%);stroke-opacity:1;stroke-miterlimit:10;" d="M -16.47125 -79.79918 L -6.756406 -107.383738 " transform="matrix(1,0,0,-1.00005,67.065,3.216361)"/>
<path style="fill:none;stroke-width:0.79701;stroke-linecap:butt;stroke-linejoin:miter;stroke:rgb(0%,0%,0%);stroke-opacity:1;stroke-miterlimit:10;" d="M 16.470156 -79.79918 L 6.755313 -107.383738 " transform="matrix(1,0,0,-1.00005,67.065,3.216361)"/>
<path style="fill:none;stroke-width:0.79701;stroke-linecap:butt;stroke-linejoin:miter;stroke:rgb(0%,0%,0%);stroke-opacity:1;stroke-miterlimit:10;" d="M 17.544375 -79.79918 L 27.263125 -107.383738 " transform="matrix(1,0,0,-1.00005,67.065,3.216361)"/>
<path style="fill:none;stroke-width:0.79701;stroke-linecap:butt;stroke-linejoin:miter;stroke:rgb(0%,0%,0%);stroke-opacity:1;stroke-miterlimit:10;" d="M 49.392031 -79.79918 L 39.673281 -107.383738 " transform="matrix(1,0,0,-1.00005,67.065,3.216361)"/>
<path style="fill:none;stroke-width:0.79701;stroke-linecap:butt;stroke-linejoin:miter;stroke:rgb(0%,0%,0%);stroke-opacity:1;stroke-miterlimit:10;" d="M 50.46625 -79.79918 L 60.181094 -107.383738 " transform="matrix(1,0,0,-1.00005,67.065,3.216361)"/>
</g>
</svg>
