<?xml version="1.0" encoding="UTF-8"?>
<svg xmlns="http://www.w3.org/2000/svg" xmlns:xlink="http://www.w3.org/1999/xlink" width="279pt" height="85pt" viewBox="0 0 279 85" version="1.1">
<g id="surface1">
<path style="fill-rule:nonzero;fill:rgb(0%,0%,0%);fill-opacity:1;stroke-width:0.3985;stroke-linecap:butt;stroke-linejoin:miter;stroke:rgb(0%,0%,0%);stroke-opacity:1;stroke-miterlimit:10;" d="M 1.416523 0.00162412 C 1.416523 0.782835 0.783749 1.415616 -0.00136023 1.415616 C -0.782563 1.415616 -1.419244 0.782835 -1.419244 0.00162412 C -1.419244 -0.783493 -0.782563 -1.416274 -0.00136023 -1.416274 C 0.783749 -1.416274 1.416523 -0.783493 1.416523 0.00162412 Z M 1.416523 0.00162412 " transform="matrix(1.00006,0,0,-1.00005,47.403704,37.857093)"/>
<path style="fill-rule:nonzero;fill:rgb(0%,0%,0%);fill-opacity:1;stroke-width:0.3985;stroke-linecap:butt;stroke-linejoin:miter;stroke:rgb(0%,0%,0%);stroke-opacity:1;stroke-miterlimit:10;" d="M 23.747215 22.328633 C 23.747215 23.11375 23.11444 23.746531 22.329331 23.746531 C 21.548128 23.746531 20.911448 23.11375 20.911448 22.328633 C 20.911448 21.547422 21.548128 20.914641 22.329331 20.914641 C 23.11444 20.914641 23.747215 21.547422 23.747215 22.328633 Z M 23.747215 22.328633 " transform="matrix(1.00006,0,0,-1.00005,47.403704,37.857093)"/>
<path style="fill-rule:nonzero;fill:rgb(0%,0%,0%);fill-opacity:1;stroke-width:0.3985;stroke-linecap:butt;stroke-linejoin:miter;stroke:rgb(0%,0%,0%);stroke-opacity:1;stroke-miterlimit:10;" d="M 23.747215 -22.329291 C 23.747215 -21.54808 23.11444 -20.911393 22.329331 -20.911393 C 21.548128 -20.911393 20.911448 -21.54808 20.911448 -22.329291 C 20.911448 -23.114408 21.548128 -23.747188 22.329331 -23.747188 C 23.11444 -23.747188 23.747215 -23.114408 23.747215 -22.329291 Z M 23.747215 -22.329291 " transform="matrix(1.00006,0,0,-1.00005,47.403704,37.857093)"/>
<path style="fill-rule:nonzero;fill:rgb(0%,0%,0%);fill-opacity:1;stroke-width:0.3985;stroke-linecap:butt;stroke-linejoin:miter;stroke:rgb(0%,0%,0%);stroke-opacity:1;stroke-miterlimit:10;" d="M 1.416523 -31.578828 C 1.416523 -30.797617 0.783749 -30.16093 -0.00136023 -30.16093 C -0.782563 -30.16093 -1.419244 -30.797617 -1.419244 -31.578828 C -1.419244 -32.363945 -0.782563 -32.996726 -0.00136023 -32.996726 C 0.783749 -32.996726 1.416523 -32.363945 1.416523 -31.578828 Z M 1.416523 -31.578828 " transform="matrix(1.00006,0,0,-1.00005,47.403704,37.857093)"/>
<path style="fill-rule:nonzero;fill:rgb(0%,0%,0%);fill-opacity:1;stroke-width:0.3985;stroke-linecap:butt;stroke-linejoin:miter;stroke:rgb(0%,0%,0%);stroke-opacity:1;stroke-miterlimit:10;" d="M -30.163613 0.00162412 C -30.163613 0.782835 -30.796388 1.415616 -31.581497 1.415616 C -32.3627 1.415616 -32.99938 0.782835 -32.99938 0.00162412 C -32.99938 -0.783493 -32.3627 -1.416274 -31.581497 -1.416274 C -30.796388 -1.416274 -30.163613 -0.783493 -30.163613 0.00162412 Z M -30.163613 0.00162412 " transform="matrix(1.00006,0,0,-1.00005,47.403704,37.857093)"/>
<path style="fill-rule:nonzero;fill:rgb(0%,0%,0%);fill-opacity:1;stroke-width:0.3985;stroke-linecap:butt;stroke-linejoin:miter;stroke:rgb(0%,0%,0%);stroke-opacity:1;stroke-miterlimit:10;" d="M 36.05507 34.640517 C 36.05507 35.421728 35.422296 36.054509 34.637186 36.054509 C 33.855983 36.054509 33.223209 35.421728 33.223209 34.640517 C 33.223209 33.8554 33.855983 33.222619 34.637186 33.222619 C 35.422296 33.222619 36.05507 33.8554 36.05507 34.640517 Z M 36.05507 34.640517 " transform="matrix(1.00006,0,0,-1.00005,47.403704,37.857093)"/>
<path style="fill-rule:nonzero;fill:rgb(0%,0%,0%);fill-opacity:1;stroke-width:0.3985;stroke-linecap:butt;stroke-linejoin:miter;stroke:rgb(0%,0%,0%);stroke-opacity:1;stroke-miterlimit:10;" d="M 36.05507 10.020654 C 36.05507 10.805771 35.422296 11.438552 34.637186 11.438552 C 33.855983 11.438552 33.223209 10.805771 33.223209 10.020654 C 33.223209 9.239443 33.855983 8.602757 34.637186 8.602757 C 35.422296 8.602757 36.05507 9.239443 36.05507 10.020654 Z M 36.05507 10.020654 " transform="matrix(1.00006,0,0,-1.00005,47.403704,37.857093)"/>
<path style="fill-rule:nonzero;fill:rgb(0%,0%,0%);fill-opacity:1;stroke-width:0.3985;stroke-linecap:butt;stroke-linejoin:miter;stroke:rgb(0%,0%,0%);stroke-opacity:1;stroke-miterlimit:10;" d="M 36.05507 -10.021312 C 36.05507 -9.240101 35.422296 -8.603414 34.637186 -8.603414 C 33.855983 -8.603414 33.223209 -9.240101 33.223209 -10.021312 C 33.223209 -10.806429 33.855983 -11.43921 34.637186 -11.43921 C 35.422296 -11.43921 36.05507 -10.806429 36.05507 -10.021312 Z M 36.05507 -10.021312 " transform="matrix(1.00006,0,0,-1.00005,47.403704,37.857093)"/>
<path style="fill-rule:nonzero;fill:rgb(0%,0%,0%);fill-opacity:1;stroke-width:0.3985;stroke-linecap:butt;stroke-linejoin:miter;stroke:rgb(0%,0%,0%);stroke-opacity:1;stroke-miterlimit:10;" d="M 36.05507 -34.637269 C 36.05507 -33.856058 35.422296 -33.223277 34.637186 -33.223277 C 33.855983 -33.223277 33.223209 -33.856058 33.223209 -34.637269 C 33.223209 -35.422386 33.855983 -36.055167 34.637186 -36.055167 C 35.422296 -36.055167 36.05507 -35.422386 36.05507 -34.637269 Z M 36.05507 -34.637269 " transform="matrix(1.00006,0,0,-1.00005,47.403704,37.857093)"/>
<path style="fill-rule:nonzero;fill:rgb(0%,0%,0%);fill-opacity:1;stroke-width:0.3985;stroke-linecap:butt;stroke-linejoin:miter;stroke:rgb(0%,0%,0%);stroke-opacity:1;stroke-miterlimit:10;" d="M 13.724379 -43.886806 C 13.724379 -43.105596 13.091604 -42.472815 12.306495 -42.472815 C 11.525292 -42.472815 10.892517 -43.105596 10.892517 -43.886806 C 10.892517 -44.671923 11.525292 -45.304704 12.306495 -45.304704 C 13.091604 -45.304704 13.724379 -44.671923 13.724379 -43.886806 Z M 13.724379 -43.886806 " transform="matrix(1.00006,0,0,-1.00005,47.403704,37.857093)"/>
<path style="fill-rule:nonzero;fill:rgb(0%,0%,0%);fill-opacity:1;stroke-width:0.3985;stroke-linecap:butt;stroke-linejoin:miter;stroke:rgb(0%,0%,0%);stroke-opacity:1;stroke-miterlimit:10;" d="M -10.891332 -43.886806 C -10.891332 -43.105596 -11.524106 -42.472815 -12.309216 -42.472815 C -13.090419 -42.472815 -13.727099 -43.105596 -13.727099 -43.886806 C -13.727099 -44.671923 -13.090419 -45.304704 -12.309216 -45.304704 C -11.524106 -45.304704 -10.891332 -44.671923 -10.891332 -43.886806 Z M -10.891332 -43.886806 " transform="matrix(1.00006,0,0,-1.00005,47.403704,37.857093)"/>
<path style="fill-rule:nonzero;fill:rgb(0%,0%,0%);fill-opacity:1;stroke-width:0.3985;stroke-linecap:butt;stroke-linejoin:miter;stroke:rgb(0%,0%,0%);stroke-opacity:1;stroke-miterlimit:10;" d="M -42.471468 12.309602 C -42.471468 13.090813 -43.104243 13.7275 -43.889352 13.7275 C -44.670555 13.7275 -45.307236 13.090813 -45.307236 12.309602 C -45.307236 11.524485 -44.670555 10.891705 -43.889352 10.891705 C -43.104243 10.891705 -42.471468 11.524485 -42.471468 12.309602 Z M -42.471468 12.309602 " transform="matrix(1.00006,0,0,-1.00005,47.403704,37.857093)"/>
<path style="fill-rule:nonzero;fill:rgb(0%,0%,0%);fill-opacity:1;stroke-width:0.3985;stroke-linecap:butt;stroke-linejoin:miter;stroke:rgb(0%,0%,0%);stroke-opacity:1;stroke-miterlimit:10;" d="M -42.471468 -12.31026 C -42.471468 -11.525143 -43.104243 -10.892362 -43.889352 -10.892362 C -44.670555 -10.892362 -45.307236 -11.525143 -45.307236 -12.31026 C -45.307236 -13.091471 -44.670555 -13.724252 -43.889352 -13.724252 C -43.104243 -13.724252 -42.471468 -13.091471 -42.471468 -12.31026 Z M -42.471468 -12.31026 " transform="matrix(1.00006,0,0,-1.00005,47.403704,37.857093)"/>
<path style="fill:none;stroke-width:0.79701;stroke-linecap:butt;stroke-linejoin:miter;stroke:rgb(0%,0%,0%);stroke-opacity:1;stroke-miterlimit:10;" d="M 1.143102 1.142192 L 21.188775 21.188065 " transform="matrix(1.00006,0,0,-1.00005,47.403704,37.857093)"/>
<path style="fill:none;stroke-width:0.79701;stroke-linecap:butt;stroke-linejoin:miter;stroke:rgb(0%,0%,0%);stroke-opacity:1;stroke-miterlimit:10;" d="M 1.143102 -1.14285 L 21.188775 -21.188723 " transform="matrix(1.00006,0,0,-1.00005,47.403704,37.857093)"/>
<path style="fill:none;stroke-width:0.79701;stroke-linecap:butt;stroke-linejoin:miter;stroke:rgb(0%,0%,0%);stroke-opacity:1;stroke-miterlimit:10;" d="M -0.00136023 -1.615483 L -0.00136023 -29.961721 " transform="matrix(1.00006,0,0,-1.00005,47.403704,37.857093)"/>
<path style="fill:none;stroke-width:0.79701;stroke-linecap:butt;stroke-linejoin:miter;stroke:rgb(0%,0%,0%);stroke-opacity:1;stroke-miterlimit:10;" d="M -1.618451 0.00162412 L -29.964406 0.00162412 " transform="matrix(1.00006,0,0,-1.00005,47.403704,37.857093)"/>
<path style="fill:none;stroke-width:0.79701;stroke-linecap:butt;stroke-linejoin:miter;stroke:rgb(0%,0%,0%);stroke-opacity:1;stroke-miterlimit:10;" d="M 23.473794 23.473107 L 33.49663 33.496043 " transform="matrix(1.00006,0,0,-1.00005,47.403704,37.857093)"/>
<path style="fill:none;stroke-width:0.79701;stroke-linecap:butt;stroke-linejoin:miter;stroke:rgb(0%,0%,0%);stroke-opacity:1;stroke-miterlimit:10;" d="M 23.473794 21.188065 L 33.49663 11.165128 " transform="matrix(1.00006,0,0,-1.00005,47.403704,37.857093)"/>
<path style="fill:none;stroke-width:0.79701;stroke-linecap:butt;stroke-linejoin:miter;stroke:rgb(0%,0%,0%);stroke-opacity:1;stroke-miterlimit:10;" d="M 23.473794 -21.188723 L 33.49663 -11.165786 " transform="matrix(1.00006,0,0,-1.00005,47.403704,37.857093)"/>
<path style="fill:none;stroke-width:0.79701;stroke-linecap:butt;stroke-linejoin:miter;stroke:rgb(0%,0%,0%);stroke-opacity:1;stroke-miterlimit:10;" d="M 23.473794 -23.473765 L 33.49663 -33.496701 " transform="matrix(1.00006,0,0,-1.00005,47.403704,37.857093)"/>
<path style="fill:none;stroke-width:0.79701;stroke-linecap:butt;stroke-linejoin:miter;stroke:rgb(0%,0%,0%);stroke-opacity:1;stroke-miterlimit:10;" d="M 1.143102 -32.723302 L 11.165938 -42.746238 " transform="matrix(1.00006,0,0,-1.00005,47.403704,37.857093)"/>
<path style="fill:none;stroke-width:0.79701;stroke-linecap:butt;stroke-linejoin:miter;stroke:rgb(0%,0%,0%);stroke-opacity:1;stroke-miterlimit:10;" d="M -1.141917 -32.723302 L -11.164753 -42.746238 " transform="matrix(1.00006,0,0,-1.00005,47.403704,37.857093)"/>
<path style="fill:none;stroke-width:0.79701;stroke-linecap:butt;stroke-linejoin:miter;stroke:rgb(0%,0%,0%);stroke-opacity:1;stroke-miterlimit:10;" d="M -32.722053 1.142192 L -42.744889 11.165128 " transform="matrix(1.00006,0,0,-1.00005,47.403704,37.857093)"/>
<path style="fill:none;stroke-width:0.79701;stroke-linecap:butt;stroke-linejoin:miter;stroke:rgb(0%,0%,0%);stroke-opacity:1;stroke-miterlimit:10;" d="M -32.722053 -1.14285 L -42.744889 -11.165786 " transform="matrix(1.00006,0,0,-1.00005,47.403704,37.857093)"/>
<path style="fill-rule:nonzero;fill:rgb(0%,0%,0%);fill-opacity:1;stroke-width:0.3985;stroke-linecap:butt;stroke-linejoin:miter;stroke:rgb(0%,0%,0%);stroke-opacity:1;stroke-miterlimit:10;" d="M 75.517546 0.00162412 C 75.517546 0.782835 74.884772 1.415616 74.099662 1.415616 C 73.318459 1.415616 72.681779 0.782835 72.681779 0.00162412 C 72.681779 -0.783493 73.318459 -1.416274 74.099662 -1.416274 C 74.884772 -1.416274 75.517546 -0.783493 75.517546 0.00162412 Z M 75.517546 0.00162412 " transform="matrix(1.00006,0,0,-1.00005,47.403704,37.857093)"/>
<path style="fill-rule:nonzero;fill:rgb(0%,0%,0%);fill-opacity:1;stroke-width:0.3985;stroke-linecap:butt;stroke-linejoin:miter;stroke:rgb(0%,0%,0%);stroke-opacity:1;stroke-miterlimit:10;" d="M 107.097683 0.00162412 C 107.097683 0.782835 106.464908 1.415616 105.679799 1.415616 C 104.898596 1.415616 104.261915 0.782835 104.261915 0.00162412 C 104.261915 -0.783493 104.898596 -1.416274 105.679799 -1.416274 C 106.464908 -1.416274 107.097683 -0.783493 107.097683 0.00162412 Z M 107.097683 0.00162412 " transform="matrix(1.00006,0,0,-1.00005,47.403704,37.857093)"/>
<path style="fill-rule:nonzero;fill:rgb(0%,0%,0%);fill-opacity:1;stroke-width:0.3985;stroke-linecap:butt;stroke-linejoin:miter;stroke:rgb(0%,0%,0%);stroke-opacity:1;stroke-miterlimit:10;" d="M 138.677819 0.00162412 C 138.677819 0.782835 138.045044 1.415616 137.259935 1.415616 C 136.478732 1.415616 135.842052 0.782835 135.842052 0.00162412 C 135.842052 -0.783493 136.478732 -1.416274 137.259935 -1.416274 C 138.045044 -1.416274 138.677819 -0.783493 138.677819 0.00162412 Z M 138.677819 0.00162412 " transform="matrix(1.00006,0,0,-1.00005,47.403704,37.857093)"/>
<path style="fill-rule:nonzero;fill:rgb(0%,0%,0%);fill-opacity:1;stroke-width:0.3985;stroke-linecap:butt;stroke-linejoin:miter;stroke:rgb(0%,0%,0%);stroke-opacity:1;stroke-miterlimit:10;" d="M 170.257955 0.00162412 C 170.257955 0.782835 169.625181 1.415616 168.840072 1.415616 C 168.058869 1.415616 167.422188 0.782835 167.422188 0.00162412 C 167.422188 -0.783493 168.058869 -1.416274 168.840072 -1.416274 C 169.625181 -1.416274 170.257955 -0.783493 170.257955 0.00162412 Z M 170.257955 0.00162412 " transform="matrix(1.00006,0,0,-1.00005,47.403704,37.857093)"/>
<path style="fill:none;stroke-width:0.79701;stroke-linecap:butt;stroke-linejoin:miter;stroke:rgb(0%,0%,0%);stroke-opacity:1;stroke-miterlimit:10;" d="M 75.716753 0.00162412 L 104.062708 0.00162412 " transform="matrix(1.00006,0,0,-1.00005,47.403704,37.857093)"/>
<path style="fill:none;stroke-width:0.79701;stroke-linecap:butt;stroke-linejoin:miter;stroke:rgb(0%,0%,0%);stroke-opacity:1;stroke-miterlimit:10;" d="M 107.296889 0.00162412 L 135.642845 0.00162412 " transform="matrix(1.00006,0,0,-1.00005,47.403704,37.857093)"/>
<path style="fill:none;stroke-width:0.79701;stroke-linecap:butt;stroke-linejoin:miter;stroke:rgb(0%,0%,0%);stroke-opacity:1;stroke-miterlimit:10;" d="M 138.877026 0.00162412 L 167.222981 0.00162412 " transform="matrix(1.00006,0,0,-1.00005,47.403704,37.857093)"/>
<path style="fill-rule:nonzero;fill:rgb(0%,0%,0%);fill-opacity:1;stroke-width:0.3985;stroke-linecap:butt;stroke-linejoin:miter;stroke:rgb(0%,0%,0%);stroke-opacity:1;stroke-miterlimit:10;" d="M 230.184047 0.00162412 C 230.184047 0.782835 229.551273 1.415616 228.766164 1.415616 C 227.984961 1.415616 227.352186 0.782835 227.352186 0.00162412 C 227.352186 -0.783493 227.984961 -1.416274 228.766164 -1.416274 C 229.551273 -1.416274 230.184047 -0.783493 230.184047 0.00162412 Z M 230.184047 0.00162412 " transform="matrix(1.00006,0,0,-1.00005,47.403704,37.857093)"/>
</g>
</svg>
